<svg width="65" height="65" viewBox="0 0 65 65" fill="none" xmlns="http://www.w3.org/2000/svg">
<path fill-rule="evenodd" clip-rule="evenodd" d="M61.412 0H3.588C1.6055 0 0 1.6055 0 3.588V61.412C0 63.3945 1.6055 65 3.588 65H34.7165V39.8288H26.247V30.0203H34.7165V22.7825C34.7165 14.3845 39.845 9.815 47.3363 9.815C50.9242 9.815 54.0052 10.0815 54.9055 10.2017V18.9768H49.712C45.6365 18.9768 44.85 20.9137 44.85 23.7542V30.017H54.5642L53.2967 39.8255H44.8467V65H61.412C63.3945 65 65 63.3945 65 61.412V3.588C65 1.6055 63.3945 0 61.412 0Z" fill="black"/>
</svg>
