<svg width="55" height="55" viewBox="0 0 55 55" fill="none" xmlns="http://www.w3.org/2000/svg">
<path d="M30.2842 0.416748C33.331 0.424873 34.8775 0.441123 36.2127 0.47904L36.7381 0.497998C37.3448 0.519665 37.9433 0.546748 38.6665 0.579248C41.5481 0.714665 43.5144 1.16966 45.2396 1.83862C47.0271 2.52654 48.5329 3.45821 50.0388 4.96133C51.4165 6.31477 52.4822 7.95261 53.1615 9.7605C53.8304 11.4857 54.2854 13.452 54.4208 16.3363C54.4533 17.0567 54.4804 17.6553 54.5021 18.2647L54.5183 18.7901C54.559 20.1226 54.5752 21.669 54.5806 24.7159L54.5833 26.7363V30.2842C54.5899 32.2597 54.5692 34.2352 54.521 36.2101L54.5048 36.7355C54.4831 37.3449 54.456 37.9434 54.4235 38.6638C54.2881 41.5482 53.8277 43.5117 53.1615 45.2397C52.4822 47.0476 51.4165 48.6854 50.0388 50.0388C48.6853 51.4165 47.0475 52.4822 45.2396 53.1615C43.5144 53.8305 41.5481 54.2855 38.6665 54.4209L36.7381 54.5022L36.2127 54.5184C34.8775 54.5563 33.331 54.5753 30.2842 54.5807L28.2638 54.5834H24.7185C22.7422 54.5904 20.7658 54.5696 18.79 54.5211L18.2646 54.5049C17.6217 54.4805 16.9789 54.4525 16.3363 54.4209C13.4546 54.2855 11.4883 53.8305 9.76042 53.1615C7.9535 52.4819 6.31662 51.4162 4.96396 50.0388C3.58527 48.6857 2.51863 47.0478 1.83855 45.2397C1.16959 43.5145 0.714588 41.5482 0.579171 38.6638L0.497921 36.7355L0.48438 36.2101C0.434454 34.2352 0.411883 32.2597 0.416671 30.2842V24.7159C0.409175 22.7405 0.429038 20.765 0.476255 18.7901L0.495213 18.2647C0.51688 17.6553 0.543963 17.0567 0.576463 16.3363C0.711879 13.452 1.16688 11.4884 1.83584 9.7605C2.51751 7.95187 3.58603 6.31397 4.96667 4.96133C6.31854 3.58428 7.95447 2.51861 9.76042 1.83862C11.4883 1.16966 13.4519 0.714665 16.3363 0.579248C17.0567 0.546748 17.6579 0.519665 18.2646 0.497998L18.79 0.481748C20.7649 0.433628 22.7404 0.412862 24.7158 0.419456L30.2842 0.416748ZM27.5 13.9584C23.9085 13.9584 20.4642 15.3851 17.9246 17.9247C15.385 20.4642 13.9583 23.9086 13.9583 27.5001C13.9583 31.0916 15.385 34.5359 17.9246 37.0755C20.4642 39.615 23.9085 41.0417 27.5 41.0417C31.0915 41.0417 34.5359 39.615 37.0754 37.0755C39.615 34.5359 41.0417 31.0916 41.0417 27.5001C41.0417 23.9086 39.615 20.4642 37.0754 17.9247C34.5359 15.3851 31.0915 13.9584 27.5 13.9584ZM27.5 19.3751C28.567 19.3749 29.6236 19.5849 30.6094 19.993C31.5952 20.4012 32.491 20.9995 33.2456 21.7539C34.0002 22.5082 34.5989 23.4038 35.0074 24.3895C35.4158 25.3752 35.6262 26.4317 35.6264 27.4987C35.6265 28.5657 35.4166 29.6223 35.0084 30.6081C34.6002 31.594 34.0019 32.4898 33.2476 33.2444C32.4932 33.999 31.5976 34.5976 30.6119 35.0061C29.6262 35.4146 28.5697 35.6249 27.5027 35.6251C25.3478 35.6251 23.2812 34.7691 21.7575 33.2453C20.2337 31.7216 19.3777 29.655 19.3777 27.5001C19.3777 25.3452 20.2337 23.2786 21.7575 21.7548C23.2812 20.2311 25.3478 19.3751 27.5027 19.3751M41.7215 9.89591C40.8236 9.89591 39.9625 10.2526 39.3276 10.8875C38.6927 11.5224 38.336 12.3835 38.336 13.2813C38.336 14.1792 38.6927 15.0403 39.3276 15.6752C39.9625 16.3101 40.8236 16.6667 41.7215 16.6667C42.6193 16.6667 43.4804 16.3101 44.1153 15.6752C44.7502 15.0403 45.1069 14.1792 45.1069 13.2813C45.1069 12.3835 44.7502 11.5224 44.1153 10.8875C43.4804 10.2526 42.6193 9.89591 41.7215 9.89591Z" fill="black"/>
</svg>
