<svg width="110" height="110" viewBox="0 0 110 110" fill="none" xmlns="http://www.w3.org/2000/svg">
<path fill-rule="evenodd" clip-rule="evenodd" d="M55 0.833374C62.1133 0.833341 69.1569 2.23438 75.7288 4.95649C82.3006 7.6786 88.2719 11.6685 93.3017 16.6983C98.3316 21.7281 102.322 27.6994 105.044 34.2712C107.766 40.8431 109.167 47.8867 109.167 55C109.167 84.9154 84.9155 109.167 55 109.167C25.0848 109.167 0.833435 84.9154 0.833435 55C0.833435 25.0847 25.0848 0.833374 55 0.833374ZM60.4169 60.4168H49.5834C36.1734 60.4168 24.6605 68.5385 19.6949 80.1321C27.5517 91.1494 40.437 98.3334 55 98.3334C69.5631 98.3334 82.4483 91.1494 90.3054 80.1313C85.3398 68.5385 73.8269 60.4168 60.4169 60.4168ZM55 17.0834C46.0254 17.0834 38.75 24.3588 38.75 33.3334C38.75 42.3079 46.0254 49.5834 55 49.5834C63.9746 49.5834 71.25 42.3079 71.25 33.3334C71.25 24.3588 63.9748 17.0834 55 17.0834Z" fill="black"/>
</svg>
